<svg width="84" height="80" viewBox="0 0 84 80" fill="none" xmlns="http://www.w3.org/2000/svg">
<g id="pajamas:profile" clip-path="url(#clip0_310_36)">
<path id="Vector" fill-rule="evenodd" clip-rule="evenodd" d="M42 72.5C47.9908 72.5084 53.8773 71.0076 59.0625 68.15V57.5C59.0625 54.5163 57.818 51.6548 55.6027 49.5451C53.3874 47.4353 50.3829 46.25 47.25 46.25H36.75C33.6171 46.25 30.6126 47.4353 28.3973 49.5451C26.182 51.6548 24.9375 54.5163 24.9375 57.5V68.15C30.1227 71.0076 36.0092 72.5084 42 72.5ZM66.9375 57.5V62.185C71.4772 57.5565 74.4979 51.7656 75.6284 45.5241C76.7588 39.2826 75.9497 32.8626 73.3005 27.0531C70.6513 21.2437 66.2774 16.2981 60.7166 12.8242C55.1558 9.35037 48.6504 7.4997 42 7.4997C35.3496 7.4997 28.8442 9.35037 23.2834 12.8242C17.7226 16.2981 13.3487 21.2437 10.6995 27.0531C8.05029 32.8626 7.24117 39.2826 8.37162 45.5241C9.50206 51.7656 12.5228 57.5565 17.0625 62.185V57.5C17.0625 53.6344 18.3163 49.8631 20.6525 46.702C22.9887 43.5409 26.2931 41.1443 30.114 39.84C28.1315 37.6683 26.8468 34.9994 26.4131 32.1515C25.9794 29.3036 26.415 26.397 27.6679 23.7784C28.9208 21.1598 30.9382 18.9397 33.4794 17.3829C36.0207 15.8261 38.9784 14.9984 42 14.9984C45.0216 14.9984 47.9793 15.8261 50.5206 17.3829C53.0618 18.9397 55.0792 21.1598 56.3321 23.7784C57.585 26.397 58.0206 29.3036 57.5869 32.1515C57.1532 34.9994 55.8685 37.6683 53.886 39.84C57.7069 41.1443 61.0113 43.5409 63.3475 46.702C65.6837 49.8631 66.9375 53.6344 66.9375 57.5ZM42 80C53.1391 80 63.822 75.7857 71.6985 68.2843C79.575 60.7828 84 50.6087 84 40C84 29.3913 79.575 19.2172 71.6985 11.7157C63.822 4.21427 53.1391 0 42 0C30.8609 0 20.178 4.21427 12.3015 11.7157C4.42499 19.2172 0 29.3913 0 40C0 50.6087 4.42499 60.7828 12.3015 68.2843C20.178 75.7857 30.8609 80 42 80ZM49.875 30C49.875 31.9891 49.0453 33.8968 47.5685 35.3033C46.0916 36.7098 44.0886 37.5 42 37.5C39.9114 37.5 37.9084 36.7098 36.4315 35.3033C34.9547 33.8968 34.125 31.9891 34.125 30C34.125 28.0109 34.9547 26.1032 36.4315 24.6967C37.9084 23.2902 39.9114 22.5 42 22.5C44.0886 22.5 46.0916 23.2902 47.5685 24.6967C49.0453 26.1032 49.875 28.0109 49.875 30Z" fill="black"/>
</g>
<defs>
<clipPath id="clip0_310_36">
<rect width="84" height="80" fill="white"/>
</clipPath>
</defs>
</svg>
